<?xml version="1.0" encoding="UTF-8" standalone="no"?>
<!-- Generator: Adobe Illustrator 14.0.0, SVG Export Plug-In . SVG Version: 6.00 Build 43363)  -->

<svg
   xmlns:dc="http://purl.org/dc/elements/1.1/"
   xmlns:cc="http://creativecommons.org/ns#"
   xmlns:rdf="http://www.w3.org/1999/02/22-rdf-syntax-ns#"
   xmlns:svg="http://www.w3.org/2000/svg"
   xmlns="http://www.w3.org/2000/svg"
   xmlns:sodipodi="http://sodipodi.sourceforge.net/DTD/sodipodi-0.dtd"
   xmlns:inkscape="http://www.inkscape.org/namespaces/inkscape"
   version="1.1"
   id="Layer_1"
   x="0px"
   y="0px"
   width="1224px"
   height="792px"
   viewBox="0 0 1224 792"
   enable-background="new 0 0 1224 792"
   xml:space="preserve"
   inkscape:version="0.48.4 r9939"
   sodipodi:docname="pikaswoosh_blue.svg"
   inkscape:export-filename="/home/jadep/other/pika/img/pikaswoosh_blue.png"
   inkscape:export-xdpi="90"
   inkscape:export-ydpi="90"><metadata
     id="metadata29"><rdf:RDF><cc:Work
         rdf:about=""><dc:format>image/svg+xml</dc:format><dc:type
           rdf:resource="http://purl.org/dc/dcmitype/StillImage" /><dc:title></dc:title></cc:Work></rdf:RDF></metadata><defs
     id="defs27" /><sodipodi:namedview
     pagecolor="#1a1717"
     bordercolor="#666666"
     borderopacity="1"
     objecttolerance="10"
     gridtolerance="10"
     guidetolerance="10"
     inkscape:pageopacity="0"
     inkscape:pageshadow="2"
     inkscape:window-width="1280"
     inkscape:window-height="750"
     id="namedview25"
     showgrid="false"
     inkscape:zoom="0.24918301"
     inkscape:cx="-700.28853"
     inkscape:cy="396.00001"
     inkscape:window-x="0"
     inkscape:window-y="0"
     inkscape:window-maximized="1"
     inkscape:current-layer="Layer_1" /><path
     style="fill:#ffffff;fill-opacity:1;stroke:#ffffff;stroke-width:4.81299999999999972;stroke-opacity:1;stroke-miterlimit:4;stroke-dasharray:none"
     d="m 211.89246,627.23057 c -85.78344,-17.5168 -130.426231,-47.49903 -130.426231,-87.5947 0,-34.90838 60.340881,-105.32044 134.661731,-157.1374 91.13874,-63.5425 255.61152,-151.20012 333.83619,-177.92178 41.54312,-14.19118 73.53306,-18.0856 199.68569,-24.30949 81.8557,-4.03846 113.43454,-9.10803 117.15674,-18.80804 3.25805,-8.49025 14.16461,-6.41825 23.15154,4.39824 7.69029,9.25594 11.87898,10.10316 70.38024,14.23536 97.81894,6.90939 138.20554,18.08127 166.06054,45.93628 21.2259,21.22593 20.2716,37.81572 -4.3484,75.59156 -22.7126,34.84917 -97.463,110.71038 -133.62034,135.60597 -131.69084,90.67369 -290.06958,143.19049 -568.48453,188.50386 -91.98411,14.9708 -140.3757,15.31974 -208.05317,1.50014 z m 184.60328,-26.13581 c 70.60709,-7.07448 147.28929,-23.72899 238.78032,-51.86047 47.65642,-14.6533 252.48733,-86.93027 256.2611,-90.42472 0.78557,-0.72742 -1.71874,-9.56298 -5.56511,-19.63456 -8.86505,-23.21284 -6.39257,-61.94421 5.4342,-85.1266 15.28547,-29.962 44.70883,-46.45651 71.06873,-39.8406 8.86718,2.22552 10.98948,0.71172 16.07883,-11.46877 6.685,-15.99953 7.77095,-40.72961 1.94656,-44.32929 -2.1542,-1.33135 -14.79539,-0.17368 -28.09156,2.5726 -29.29028,6.04981 -36.56377,1.98928 -24.31952,-13.57677 5.24887,-6.67289 15.28728,-12.03433 28.43998,-15.18962 17.43783,-4.18326 22.8685,-3.90622 38.19948,1.94872 32.99235,12.59992 34.91685,36.769 7.10535,89.23454 -37.51802,70.77652 -42.6646,81.59845 -40.04953,84.21354 1.46534,1.46535 12.54467,-0.45025 24.62074,-4.25689 18.60309,-5.8641 30.19269,-14.61706 75.88299,-57.30996 59.6072,-55.69689 65.4886,-64.69005 63.2236,-96.67492 -1.9722,-27.85067 -109.8894,-56.59312 -196.66036,-52.37813 -55.12282,2.67765 -70.56147,12.51281 -87.22894,55.56905 -3.79564,9.80518 -11.23552,23.69677 -16.53303,30.87022 -8.61784,11.66958 -8.87099,13.04153 -2.40462,13.0323 3.97495,-0.006 18.06259,-6.55235 31.30587,-14.54817 13.24328,-7.99582 31.05637,-15.48014 39.58464,-16.63181 14.75839,-1.99301 15.28788,-1.68644 10.98217,6.35881 -6.31937,11.80786 -25.94314,25.67635 -57.05782,40.32382 -14.6061,6.87594 -28.55741,14.9126 -31.00292,17.85924 -3.41572,4.1157 1.02752,13.73684 19.16924,41.50806 22.81633,34.92702 36.49166,66.82915 31.00095,72.31983 -6.51372,6.51376 -25.16158,-11.28061 -48.89069,-46.65305 -14.13969,-21.07772 -29.35204,-40.57624 -33.80527,-43.33004 -7.50184,-4.63903 -9.20757,-2.8777 -23.21559,23.9721 -17.39116,33.33455 -40.47102,59.29054 -52.72065,59.29054 -8.39391,0 -8.3832,-0.14716 1.67652,-23.0754 12.19096,-27.78578 28.21276,-54.44122 74.174,-123.40328 34.27545,-51.42829 48.03329,-74.67633 48.03329,-81.16686 0,-1.82034 -19.81403,-1.45855 -44.03122,0.80398 l -44.03125,4.1137 -14.15983,24.07868 c -30.82225,52.41297 -85.76865,89.93597 -202.77442,138.47494 -27.59017,11.44558 -53.45595,23.74548 -57.47953,27.3331 -4.02356,3.58763 -19.80316,31.858 -35.06575,62.82304 -15.26259,30.96504 -30.0296,59.02002 -32.81556,62.34439 -8.08763,9.65064 -31.41286,28.06716 -35.54812,28.06716 -11.71002,0 18.30396,-67.30064 65.39323,-146.63189 21.01246,-35.39966 42.23792,-73.3236 47.16769,-84.27541 9.80765,-21.78838 21.56981,-58.06109 19.49896,-60.13193 -0.71678,-0.71681 -25.67081,8.22865 -55.45333,19.87881 -147.43365,57.67225 -239.92533,110.00632 -300.15118,169.83294 -54.317656,53.95758 -58.822044,93.53867 -14.00471,123.06263 39.87379,26.26732 141.98877,34.66123 268.03207,22.0324 l 0,0 z m 547.51502,-203.7528 c 4.35279,-8.53222 10.06786,-24.06618 12.70015,-34.51991 3.95572,-15.70949 3.81522,-19.62147 -0.80969,-22.55002 -10.63014,-6.73112 -22.97705,-3.62349 -33.01895,8.31061 -11.30522,13.43549 -28.09942,54.83531 -24.56459,60.5548 1.26373,2.0447 10.28092,3.71764 20.03824,3.71764 16.5543,0 18.26987,-1.03738 25.65484,-15.51312 z M 540.96787,343.02461 c 84.01508,-24.76974 132.69476,-55.96895 154.73463,-99.17062 11.73655,-23.00554 5.61194,-25.68459 -58.07078,-25.40157 -28.88575,0.12838 -57.32758,1.47749 -63.20403,2.99804 -8.66098,2.24106 -15.60624,12.07706 -36.67296,51.93708 -32.77005,62.00368 -40.13135,79.2991 -33.70338,79.18661 2.64636,-0.0463 19.25881,-4.3436 36.91652,-9.54954 l 0,0 z"
     id="path3787"
     inkscape:connector-curvature="0"
     inkscape:export-filename="/home/jadep/other/pika/img/pikaswoosh_outlined.png"
     inkscape:export-xdpi="90"
     inkscape:export-ydpi="90" /><path
     style="fill:#ffffff;fill-opacity:1;stroke:#ffffff;stroke-width:4.01311493000000041;stroke-opacity:1"
     d="m 656.00316,423.93878 c 5.65817,-25.18269 15.09677,-44.4916 45.15208,-92.3694 24.76408,-39.44892 28.10953,-43.12086 39.28678,-43.12086 11.64188,0 12.09513,0.61465 9.61794,13.04262 -1.42984,7.17344 -11.38944,28.39279 -22.13245,47.1541 -10.743,18.76131 -24.18623,43.41431 -29.87383,54.78443 -10.95306,21.89633 -27.11369,37.51721 -38.81355,37.51721 -6.22666,0 -6.60811,-2.00426 -3.23697,-17.0081 z"
     id="path3789"
     inkscape:connector-curvature="0" /><path
     style="fill:#ffffff;fill-opacity:1;stroke:#ffffff;stroke-width:4.01311493000000041;stroke-opacity:1"
     d="m 735.7091,268.53286 c -4.9872,-3.15387 -4.40563,-5.34642 3.70938,-13.98445 11.64029,-12.39052 22.44712,-13.13615 28.42766,-1.9614 8.28503,15.48072 -14.77746,26.92393 -32.13704,15.94585 z"
     id="path3791"
     inkscape:connector-curvature="0" /></svg>