<?xml version="1.0" encoding="utf-8"?>
<!-- Generator: Adobe Illustrator 14.0.0, SVG Export Plug-In . SVG Version: 6.00 Build 43363)  -->
<!DOCTYPE svg PUBLIC "-//W3C//DTD SVG 1.1//EN" "http://www.w3.org/Graphics/SVG/1.1/DTD/svg11.dtd">
<svg version="1.1" id="Layer_1" xmlns="http://www.w3.org/2000/svg" xmlns:xlink="http://www.w3.org/1999/xlink" x="0px" y="0px"
	 width="1224px" height="792px" viewBox="0 0 1224 792" enable-background="new 0 0 1224 792" xml:space="preserve">
<g>
	<path fill-rule="evenodd" clip-rule="evenodd" fill="#FFFFFF" d="M869.701,152.911c-1.496,5.552-7.445,6.649-8.457,12.684
		c-90.486,27.706-205.412,3.824-291.712,29.592c-77.423,23.121-165.009,70.423-240.979,114.149
		c-100.077,57.6-203.991,120.989-249.436,215.614c0-124.013,0-248.026,0-372.04C342.646,152.911,606.174,152.911,869.701,152.911z"
		/>
	<path fill-rule="evenodd" clip-rule="evenodd" d="M869.701,152.911c4.227,0,8.453,0,12.685,0
		c7.745,4.933,9.159,16.204,16.91,21.139c98.031,7.658,209.959,1.422,245.204,71.871c0,8.455,0,16.91,0,25.365
		C1003.576,517.901,687.599,589.47,349.692,639.097c-28.186,0-56.369,0-84.555,0c-75.805-14.382-158.874-21.508-186.02-84.552
		c0-9.866,0-19.733,0-29.595c45.444-94.625,149.358-158.015,249.436-215.614c75.97-43.726,163.557-91.028,240.979-114.149
		c86.3-25.768,201.226-1.886,291.712-29.592C862.256,159.56,868.205,158.463,869.701,152.911z M1059.947,343.157
		c20.637-20.633,77.019-52.935,63.416-97.236c-9.578-31.202-171.813-62.593-236.751-42.279
		c-44.193,13.827-40.039,69.198-67.647,93.01c32.324-7.178,56.971-44.441,93.01-33.821c-13.354,43.014-69.406,43.329-97.236,71.871
		c18.145,35.431,59.189,70.431,54.963,114.149c-43.723-3.096-54.157-75.263-93.01-97.236c-22.215,32.11-33.635,94.95-80.325,88.778
		c31.282-91.319,94.65-150.553,135.283-232.521c-31.901,0.508-56.878,7.946-88.778,8.455
		c-42.377,109.822-166.375,138.023-270.577,186.02c-40.347,50.029-47.54,142.049-114.147,160.652
		c20.045-105.441,116.412-193.567,139.515-295.938c-114.792,42.253-271.947,107.064-355.13,190.249
		c-15.218,15.213-38.77,42.913-42.275,63.415C90.971,575,158.563,595.941,205.948,601.05
		c264.723,28.521,496.636-77.797,684.89-143.741c-34.15-46.546-5.484-168.531,80.326-143.744
		c7.611-14.526,17.194-36.545,8.458-54.96c-22.272-1.127-42.485,17.568-63.415,4.227c9.99-44.678,86.445-43.589,101.462-16.91
		c27.83,49.433-50.185,121.858-54.957,160.651C1010.414,402.516,1028.047,375.058,1059.947,343.157z M565.304,224.781
		c-19.248,44.167-45.455,81.376-63.416,126.833c85.203-21.902,167.556-46.649,198.704-122.604
		C670.569,204.187,606.713,222.555,565.304,224.781z M899.296,406.572c6.146,6.538,21.643,3.726,33.821,4.231
		c12.539-18.466,23.418-38.589,25.363-67.647C924.226,323.315,906.319,373.247,899.296,406.572z"/>
	<path fill-rule="evenodd" clip-rule="evenodd" fill="#FFFFFF" d="M882.386,152.911c87.37,0,174.745,0,262.114,0
		c0,31.003,0,62.006,0,93.01c-35.245-70.449-147.173-64.213-245.204-71.871C891.545,169.114,890.131,157.844,882.386,152.911z"/>
	<path fill-rule="evenodd" clip-rule="evenodd" fill="#FFFFFF" d="M962.712,406.572c4.772-38.793,82.787-111.218,54.957-160.651
		c-15.017-26.679-91.472-27.768-101.462,16.91c20.93,13.342,41.143-5.354,63.415-4.227c8.736,18.415-0.847,40.434-8.458,54.96
		c-85.811-24.788-114.477,97.198-80.326,143.744c-188.254,65.944-420.167,172.263-684.89,143.741
		c-47.385-5.108-114.978-26.05-105.691-80.326c3.506-20.502,27.058-48.202,42.275-63.415
		c83.183-83.185,240.338-147.996,355.13-190.249c-23.103,102.371-119.47,190.497-139.515,295.938
		c66.607-18.604,73.8-110.623,114.147-160.652c104.202-47.996,228.2-76.197,270.577-186.02c31.9-0.509,56.877-7.947,88.778-8.455
		c-40.633,81.969-104.001,141.202-135.283,232.521c46.69,6.172,58.11-56.668,80.325-88.778
		c38.853,21.973,49.287,94.141,93.01,97.236c4.227-43.718-36.818-78.718-54.963-114.149c27.83-28.542,83.882-28.857,97.236-71.871
		c-36.039-10.62-60.686,26.643-93.01,33.821c27.608-23.812,23.454-79.183,67.647-93.01c64.938-20.313,227.173,11.077,236.751,42.279
		c13.603,44.301-42.779,76.603-63.416,97.236C1028.047,375.058,1010.414,402.516,962.712,406.572z M730.187,267.06
		c7.978,12.104,44.513,13.729,42.273-8.455C769.333,228.164,730.197,245.972,730.187,267.06z M725.955,288.196
		c-28.072,46.776-72.363,99.347-76.094,156.429c40.096,0.965,49.874-43.394,63.415-67.645c15.45-27.673,38.815-55.456,42.273-88.784
		C745.688,288.196,735.822,288.196,725.955,288.196z"/>
	<path fill-rule="evenodd" clip-rule="evenodd" fill="#FFFFFF" d="M700.592,229.01c-31.147,75.955-113.501,100.702-198.704,122.604
		c17.96-45.457,44.167-82.666,63.416-126.833C606.713,222.555,670.569,204.187,700.592,229.01z"/>
	<path fill-rule="evenodd" clip-rule="evenodd" d="M772.46,258.604c2.239,22.185-34.296,20.559-42.273,8.455
		C730.197,245.972,769.333,228.164,772.46,258.604z"/>
	<path fill-rule="evenodd" clip-rule="evenodd" fill="#FFFFFF" d="M1144.5,271.286c0,122.604,0,245.206,0,367.811
		c-264.938,0-529.869,0-794.808,0C687.599,589.47,1003.576,517.901,1144.5,271.286z"/>
	<path fill-rule="evenodd" clip-rule="evenodd" d="M755.55,288.196c-3.458,33.328-26.823,61.111-42.273,88.784
		c-13.541,24.251-23.319,68.609-63.415,67.645c3.73-57.082,48.021-109.652,76.094-156.429
		C735.822,288.196,745.688,288.196,755.55,288.196z"/>
	<path fill-rule="evenodd" clip-rule="evenodd" fill="#FFFFFF" d="M958.48,343.157c-1.945,29.058-12.824,49.181-25.363,67.647
		c-12.179-0.506-27.675,2.307-33.821-4.231C906.319,373.247,924.226,323.315,958.48,343.157z"/>
	<path fill-rule="evenodd" clip-rule="evenodd" fill="#FFFFFF" d="M79.117,554.545c27.146,63.044,110.215,70.17,186.02,84.552
		c-62.006,0-124.013,0-186.02,0C79.117,610.911,79.117,582.73,79.117,554.545z"/>
</g>
</svg>
